solid OpenSCAD_Model
  facet normal -1.000000 -0.000000 -0.000000
    outer loop
      vertex -3.750000 3.250000 0.000000
      vertex -3.750000 3.250000 2.850000
      vertex -3.750000 5.250000 0.000000
    endloop
  endfacet
  facet normal -1.000000 0.000000 0.000000
    outer loop
      vertex -3.750000 5.250000 0.000000
      vertex -3.750000 3.250000 2.850000
      vertex -3.750000 5.250000 2.850000
    endloop
  endfacet
  facet normal 0.000000 -1.000000 0.000000
    outer loop
      vertex -3.750000 3.250000 2.850000
      vertex -3.750000 3.250000 0.000000
      vertex -2.750000 3.250000 0.000000
    endloop
  endfacet
  facet normal 0.000000 -1.000000 0.000000
    outer loop
      vertex -2.750000 3.250000 2.850000
      vertex -3.750000 3.250000 2.850000
      vertex -2.750000 3.250000 0.000000
    endloop
  endfacet
  facet normal -0.000000 -0.000000 -1.000000
    outer loop
      vertex -3.750000 3.250000 0.000000
      vertex -3.750000 5.250000 0.000000
      vertex -2.750000 3.250000 0.000000
    endloop
  endfacet
  facet normal 0.000000 -0.000000 -1.000000
    outer loop
      vertex -2.750000 3.250000 0.000000
      vertex -3.750000 5.250000 0.000000
      vertex 3.750000 5.250000 0.000000
    endloop
  endfacet
  facet normal -0.000000 0.000000 -1.000000
    outer loop
      vertex 2.750000 3.250000 0.000000
      vertex 3.750000 5.250000 0.000000
      vertex 3.750000 3.250000 0.000000
    endloop
  endfacet
  facet normal -0.000000 0.000000 -1.000000
    outer loop
      vertex -2.750000 3.250000 0.000000
      vertex 3.750000 5.250000 0.000000
      vertex 2.750000 3.250000 0.000000
    endloop
  endfacet
  facet normal -0.000000 0.000000 -1.000000
    outer loop
      vertex 1.800000 0.000000 0.000000
      vertex 2.750000 3.250000 0.000000
      vertex 1.760666 -0.374241 0.000000
    endloop
  endfacet
  facet normal 0.000000 0.000000 -1.000000
    outer loop
      vertex -1.760666 -0.374241 0.000000
      vertex -2.750000 -4.250000 0.000000
      vertex -1.800000 0.000000 0.000000
    endloop
  endfacet
  facet normal 0.000000 0.000000 -1.000000
    outer loop
      vertex -1.644382 -0.732126 0.000000
      vertex -2.750000 -4.250000 0.000000
      vertex -1.760666 -0.374241 0.000000
    endloop
  endfacet
  facet normal 0.000000 0.000000 -1.000000
    outer loop
      vertex -1.456231 -1.058013 0.000000
      vertex -2.750000 -4.250000 0.000000
      vertex -1.644382 -0.732126 0.000000
    endloop
  endfacet
  facet normal 0.000000 0.000000 -1.000000
    outer loop
      vertex -1.204435 -1.337661 0.000000
      vertex -2.750000 -4.250000 0.000000
      vertex -1.456231 -1.058013 0.000000
    endloop
  endfacet
  facet normal 0.000000 0.000000 -1.000000
    outer loop
      vertex 2.750000 -4.250000 0.000000
      vertex -2.750000 -4.250000 0.000000
      vertex -1.204435 -1.337661 0.000000
    endloop
  endfacet
  facet normal 0.000000 0.000000 -1.000000
    outer loop
      vertex 2.750000 -4.250000 0.000000
      vertex -1.204435 -1.337661 0.000000
      vertex -0.900000 -1.558846 0.000000
    endloop
  endfacet
  facet normal 0.000000 0.000000 -1.000000
    outer loop
      vertex -0.188151 -1.790139 0.000000
      vertex 2.750000 -4.250000 0.000000
      vertex -0.556231 -1.711902 0.000000
    endloop
  endfacet
  facet normal 0.000000 0.000000 -1.000000
    outer loop
      vertex 0.188151 -1.790139 0.000000
      vertex 2.750000 -4.250000 0.000000
      vertex -0.188151 -1.790139 0.000000
    endloop
  endfacet
  facet normal 0.000000 0.000000 -1.000000
    outer loop
      vertex 0.556231 -1.711902 0.000000
      vertex 2.750000 -4.250000 0.000000
      vertex 0.188151 -1.790139 0.000000
    endloop
  endfacet
  facet normal 0.000000 0.000000 -1.000000
    outer loop
      vertex 1.204435 -1.337661 0.000000
      vertex 2.750000 -4.250000 0.000000
      vertex 0.900000 -1.558846 0.000000
    endloop
  endfacet
  facet normal 0.000000 0.000000 -1.000000
    outer loop
      vertex 1.456231 -1.058013 0.000000
      vertex 2.750000 -4.250000 0.000000
      vertex 1.204435 -1.337661 0.000000
    endloop
  endfacet
  facet normal 0.000000 0.000000 -1.000000
    outer loop
      vertex 1.644382 -0.732126 0.000000
      vertex 2.750000 -4.250000 0.000000
      vertex 1.456231 -1.058013 0.000000
    endloop
  endfacet
  facet normal 0.000000 0.000000 -1.000000
    outer loop
      vertex 1.760666 -0.374241 0.000000
      vertex 2.750000 -4.250000 0.000000
      vertex 1.644382 -0.732126 0.000000
    endloop
  endfacet
  facet normal 0.000000 0.000000 -1.000000
    outer loop
      vertex 2.750000 3.250000 0.000000
      vertex 2.750000 -4.250000 0.000000
      vertex 1.760666 -0.374241 0.000000
    endloop
  endfacet
  facet normal -0.000000 0.000000 -1.000000
    outer loop
      vertex 1.760666 0.374241 0.000000
      vertex 2.750000 3.250000 0.000000
      vertex 1.800000 0.000000 0.000000
    endloop
  endfacet
  facet normal -0.000000 0.000000 -1.000000
    outer loop
      vertex 1.644382 0.732126 0.000000
      vertex 2.750000 3.250000 0.000000
      vertex 1.760666 0.374241 0.000000
    endloop
  endfacet
  facet normal -0.000000 -0.000000 -1.000000
    outer loop
      vertex 0.188151 1.790139 0.000000
      vertex -2.750000 3.250000 0.000000
      vertex 0.556231 1.711902 0.000000
    endloop
  endfacet
  facet normal 0.000000 0.000000 -1.000000
    outer loop
      vertex 2.750000 3.250000 0.000000
      vertex 1.644382 0.732126 0.000000
      vertex 1.456231 1.058013 0.000000
    endloop
  endfacet
  facet normal 0.000000 0.000000 -1.000000
    outer loop
      vertex 2.750000 3.250000 0.000000
      vertex 1.456231 1.058013 0.000000
      vertex 1.204435 1.337661 0.000000
    endloop
  endfacet
  facet normal 0.000000 0.000000 -1.000000
    outer loop
      vertex 2.750000 3.250000 0.000000
      vertex 1.204435 1.337661 0.000000
      vertex 0.900000 1.558846 0.000000
    endloop
  endfacet
  facet normal 0.000000 0.000000 -1.000000
    outer loop
      vertex 2.750000 3.250000 0.000000
      vertex 0.900000 1.558846 0.000000
      vertex -2.750000 3.250000 0.000000
    endloop
  endfacet
  facet normal 0.000000 0.000000 -1.000000
    outer loop
      vertex 0.900000 1.558846 0.000000
      vertex 0.556231 1.711902 0.000000
      vertex -2.750000 3.250000 0.000000
    endloop
  endfacet
  facet normal -0.000000 -0.000000 -1.000000
    outer loop
      vertex -0.188151 1.790139 0.000000
      vertex -2.750000 3.250000 0.000000
      vertex 0.188151 1.790139 0.000000
    endloop
  endfacet
  facet normal 0.000000 -0.000000 -1.000000
    outer loop
      vertex -0.556231 1.711902 0.000000
      vertex -2.750000 3.250000 0.000000
      vertex -0.188151 1.790139 0.000000
    endloop
  endfacet
  facet normal 0.000000 -0.000000 -1.000000
    outer loop
      vertex -1.456231 1.058013 0.000000
      vertex -2.750000 3.250000 0.000000
      vertex -1.204435 1.337661 0.000000
    endloop
  endfacet
  facet normal 0.000000 0.000000 -1.000000
    outer loop
      vertex -0.556231 1.711902 0.000000
      vertex -0.900000 1.558846 0.000000
      vertex -2.750000 3.250000 0.000000
    endloop
  endfacet
  facet normal 0.000000 0.000000 -1.000000
    outer loop
      vertex -0.900000 1.558846 0.000000
      vertex -1.204435 1.337661 0.000000
      vertex -2.750000 3.250000 0.000000
    endloop
  endfacet
  facet normal 0.000000 0.000000 -1.000000
    outer loop
      vertex -0.556231 -1.711902 0.000000
      vertex 2.750000 -4.250000 0.000000
      vertex -0.900000 -1.558846 0.000000
    endloop
  endfacet
  facet normal 0.000000 0.000000 -1.000000
    outer loop
      vertex 0.900000 -1.558846 0.000000
      vertex 2.750000 -4.250000 0.000000
      vertex 0.556231 -1.711902 0.000000
    endloop
  endfacet
  facet normal 0.000000 0.000000 -1.000000
    outer loop
      vertex -2.750000 3.250000 0.000000
      vertex -1.456231 1.058013 0.000000
      vertex -1.644382 0.732126 0.000000
    endloop
  endfacet
  facet normal 0.000000 0.000000 -1.000000
    outer loop
      vertex -2.750000 3.250000 0.000000
      vertex -1.644382 0.732126 0.000000
      vertex -1.760666 0.374241 0.000000
    endloop
  endfacet
  facet normal 0.000000 0.000000 -1.000000
    outer loop
      vertex -2.750000 3.250000 0.000000
      vertex -1.760666 0.374241 0.000000
      vertex -1.800000 0.000000 0.000000
    endloop
  endfacet
  facet normal 0.000000 0.000000 -1.000000
    outer loop
      vertex -2.750000 3.250000 0.000000
      vertex -1.800000 0.000000 0.000000
      vertex -2.750000 -4.250000 0.000000
    endloop
  endfacet
  facet normal 0.000000 1.000000 0.000000
    outer loop
      vertex -3.750000 5.250000 0.000000
      vertex -3.750000 5.250000 2.850000
      vertex 3.750000 5.250000 0.000000
    endloop
  endfacet
  facet normal 0.000000 1.000000 0.000000
    outer loop
      vertex 3.750000 5.250000 0.000000
      vertex -3.750000 5.250000 2.850000
      vertex 3.750000 5.250000 2.850000
    endloop
  endfacet
  facet normal 0.000000 0.000000 1.000000
    outer loop
      vertex 0.000000 3.576000 2.850000
      vertex 2.750000 3.250000 2.850000
      vertex -3.750000 5.250000 2.850000
    endloop
  endfacet
  facet normal 0.000000 -0.000000 1.000000
    outer loop
      vertex -3.750000 5.250000 2.850000
      vertex -3.750000 3.250000 2.850000
      vertex -2.750000 3.250000 2.850000
    endloop
  endfacet
  facet normal -0.000000 0.000000 1.000000
    outer loop
      vertex 0.000000 3.576000 2.850000
      vertex -3.750000 5.250000 2.850000
      vertex -2.750000 3.250000 2.850000
    endloop
  endfacet
  facet normal 0.000000 0.000000 1.000000
    outer loop
      vertex -2.750000 1.988335 2.850000
      vertex 0.000000 3.576000 2.850000
      vertex -2.750000 3.250000 2.850000
    endloop
  endfacet
  facet normal 0.000000 0.000000 1.000000
    outer loop
      vertex 2.750000 1.988335 2.850000
      vertex 2.750000 3.250000 2.850000
      vertex 0.000000 3.576000 2.850000
    endloop
  endfacet
  facet normal 0.000000 0.000000 1.000000
    outer loop
      vertex 2.750000 3.250000 2.850000
      vertex 3.750000 3.250000 2.850000
      vertex -3.750000 5.250000 2.850000
    endloop
  endfacet
  facet normal 0.000000 0.000000 1.000000
    outer loop
      vertex 3.750000 3.250000 2.850000
      vertex 3.750000 5.250000 2.850000
      vertex -3.750000 5.250000 2.850000
    endloop
  endfacet
  facet normal -1.000000 0.000000 0.000000
    outer loop
      vertex -2.750000 1.988335 2.850000
      vertex -2.750000 3.250000 0.000000
      vertex -2.750000 1.988335 0.600000
    endloop
  endfacet
  facet normal -1.000000 0.000000 -0.000000
    outer loop
      vertex -2.750000 -4.250000 0.000000
      vertex -2.750000 -4.250000 2.850000
      vertex -2.750000 -1.988335 0.600000
    endloop
  endfacet
  facet normal -1.000000 -0.000000 0.000000
    outer loop
      vertex -2.750000 -4.250000 0.000000
      vertex -2.750000 -1.988335 0.600000
      vertex -2.750000 3.250000 0.000000
    endloop
  endfacet
  facet normal -1.000000 0.000000 0.000000
    outer loop
      vertex -2.750000 3.250000 0.000000
      vertex -2.750000 1.988335 2.850000
      vertex -2.750000 3.250000 2.850000
    endloop
  endfacet
  facet normal -1.000000 0.000000 0.000000
    outer loop
      vertex -2.750000 -1.988335 0.600000
      vertex -2.750000 -4.250000 2.850000
      vertex -2.750000 -1.988335 2.850000
    endloop
  endfacet
  facet normal -1.000000 0.000000 0.000000
    outer loop
      vertex -2.750000 1.988335 0.600000
      vertex -2.750000 3.250000 0.000000
      vertex -2.750000 -1.988335 0.600000
    endloop
  endfacet
  facet normal 0.000000 -1.000000 0.000000
    outer loop
      vertex -2.750000 -4.250000 2.850000
      vertex -2.750000 -4.250000 0.000000
      vertex 2.750000 -4.250000 0.000000
    endloop
  endfacet
  facet normal 0.000000 -1.000000 0.000000
    outer loop
      vertex 2.750000 -4.250000 2.850000
      vertex -2.750000 -4.250000 2.850000
      vertex 2.750000 -4.250000 0.000000
    endloop
  endfacet
  facet normal 1.000000 0.000000 -0.000000
    outer loop
      vertex 2.750000 -1.988335 0.600000
      vertex 2.750000 -4.250000 0.000000
      vertex 2.750000 3.250000 0.000000
    endloop
  endfacet
  facet normal 1.000000 0.000000 0.000000
    outer loop
      vertex 2.750000 -1.988335 0.600000
      vertex 2.750000 -1.988335 2.850000
      vertex 2.750000 -4.250000 2.850000
    endloop
  endfacet
  facet normal 1.000000 0.000000 0.000000
    outer loop
      vertex 2.750000 3.250000 2.850000
      vertex 2.750000 1.988335 2.850000
      vertex 2.750000 3.250000 0.000000
    endloop
  endfacet
  facet normal 1.000000 0.000000 -0.000000
    outer loop
      vertex 2.750000 1.988335 2.850000
      vertex 2.750000 1.988335 0.600000
      vertex 2.750000 3.250000 0.000000
    endloop
  endfacet
  facet normal 1.000000 0.000000 -0.000000
    outer loop
      vertex 2.750000 -4.250000 2.850000
      vertex 2.750000 -4.250000 0.000000
      vertex 2.750000 -1.988335 0.600000
    endloop
  endfacet
  facet normal 1.000000 0.000000 -0.000000
    outer loop
      vertex 2.750000 1.988335 0.600000
      vertex 2.750000 -1.988335 0.600000
      vertex 2.750000 3.250000 0.000000
    endloop
  endfacet
  facet normal 0.000000 -1.000000 0.000000
    outer loop
      vertex 2.750000 3.250000 2.850000
      vertex 2.750000 3.250000 0.000000
      vertex 3.750000 3.250000 0.000000
    endloop
  endfacet
  facet normal 0.000000 -1.000000 0.000000
    outer loop
      vertex 3.750000 3.250000 2.850000
      vertex 2.750000 3.250000 2.850000
      vertex 3.750000 3.250000 0.000000
    endloop
  endfacet
  facet normal 1.000000 0.000000 -0.000000
    outer loop
      vertex 3.750000 3.250000 2.850000
      vertex 3.750000 3.250000 0.000000
      vertex 3.750000 5.250000 0.000000
    endloop
  endfacet
  facet normal 1.000000 0.000000 0.000000
    outer loop
      vertex 3.750000 5.250000 2.850000
      vertex 3.750000 3.250000 2.850000
      vertex 3.750000 5.250000 0.000000
    endloop
  endfacet
  facet normal 0.994522 -0.104528 0.000000
    outer loop
      vertex -1.760666 0.374241 0.000000
      vertex -1.760666 0.374241 0.600000
      vertex -1.800000 0.000000 0.600000
    endloop
  endfacet
  facet normal 0.994522 -0.104528 0.000000
    outer loop
      vertex -1.800000 0.000000 0.000000
      vertex -1.760666 0.374241 0.000000
      vertex -1.800000 0.000000 0.600000
    endloop
  endfacet
  facet normal 0.994522 0.104528 0.000000
    outer loop
      vertex -1.800000 0.000000 0.600000
      vertex -1.760666 -0.374241 0.600000
      vertex -1.760666 -0.374241 0.000000
    endloop
  endfacet
  facet normal 0.994522 0.104528 0.000000
    outer loop
      vertex -1.800000 0.000000 0.000000
      vertex -1.800000 0.000000 0.600000
      vertex -1.760666 -0.374241 0.000000
    endloop
  endfacet
  facet normal 0.951057 -0.309017 0.000000
    outer loop
      vertex -1.644382 0.732126 0.000000
      vertex -1.644382 0.732126 0.600000
      vertex -1.760666 0.374241 0.600000
    endloop
  endfacet
  facet normal 0.951057 -0.309017 0.000000
    outer loop
      vertex -1.760666 0.374241 0.000000
      vertex -1.644382 0.732126 0.000000
      vertex -1.760666 0.374241 0.600000
    endloop
  endfacet
  facet normal 0.866025 -0.500000 0.000000
    outer loop
      vertex -1.456231 1.058013 0.000000
      vertex -1.456231 1.058013 0.600000
      vertex -1.644382 0.732126 0.600000
    endloop
  endfacet
  facet normal 0.866025 -0.500000 0.000000
    outer loop
      vertex -1.644382 0.732126 0.000000
      vertex -1.456231 1.058013 0.000000
      vertex -1.644382 0.732126 0.600000
    endloop
  endfacet
  facet normal 0.743145 -0.669131 0.000000
    outer loop
      vertex -1.204435 1.337661 0.000000
      vertex -1.204435 1.337661 0.600000
      vertex -1.456231 1.058013 0.600000
    endloop
  endfacet
  facet normal 0.743145 -0.669131 0.000000
    outer loop
      vertex -1.456231 1.058013 0.000000
      vertex -1.204435 1.337661 0.000000
      vertex -1.456231 1.058013 0.600000
    endloop
  endfacet
  facet normal 0.587785 -0.809017 0.000000
    outer loop
      vertex -0.900000 1.558846 0.000000
      vertex -0.900000 1.558846 0.600000
      vertex -1.204435 1.337661 0.600000
    endloop
  endfacet
  facet normal 0.587785 -0.809017 0.000000
    outer loop
      vertex -1.204435 1.337661 0.000000
      vertex -0.900000 1.558846 0.000000
      vertex -1.204435 1.337661 0.600000
    endloop
  endfacet
  facet normal 0.406737 -0.913545 0.000000
    outer loop
      vertex -0.556231 1.711902 0.000000
      vertex -0.556231 1.711902 0.600000
      vertex -0.900000 1.558846 0.600000
    endloop
  endfacet
  facet normal 0.406737 -0.913545 0.000000
    outer loop
      vertex -0.900000 1.558846 0.000000
      vertex -0.556231 1.711902 0.000000
      vertex -0.900000 1.558846 0.600000
    endloop
  endfacet
  facet normal 0.207912 -0.978148 0.000000
    outer loop
      vertex -0.188151 1.790139 0.000000
      vertex -0.188151 1.790139 0.600000
      vertex -0.556231 1.711902 0.600000
    endloop
  endfacet
  facet normal 0.207912 -0.978148 0.000000
    outer loop
      vertex -0.556231 1.711902 0.000000
      vertex -0.188151 1.790139 0.000000
      vertex -0.556231 1.711902 0.600000
    endloop
  endfacet
  facet normal 0.000000 -1.000000 0.000000
    outer loop
      vertex 0.188151 1.790139 0.000000
      vertex 0.188151 1.790139 0.600000
      vertex -0.188151 1.790139 0.600000
    endloop
  endfacet
  facet normal -0.000000 -1.000000 -0.000000
    outer loop
      vertex -0.188151 1.790139 0.000000
      vertex 0.188151 1.790139 0.000000
      vertex -0.188151 1.790139 0.600000
    endloop
  endfacet
  facet normal -0.207912 -0.978148 -0.000000
    outer loop
      vertex 0.556231 1.711902 0.000000
      vertex 0.556231 1.711902 0.600000
      vertex 0.188151 1.790139 0.600000
    endloop
  endfacet
  facet normal -0.207912 -0.978148 -0.000000
    outer loop
      vertex 0.188151 1.790139 0.000000
      vertex 0.556231 1.711902 0.000000
      vertex 0.188151 1.790139 0.600000
    endloop
  endfacet
  facet normal -0.406737 -0.913545 -0.000000
    outer loop
      vertex 0.900000 1.558846 0.000000
      vertex 0.900000 1.558846 0.600000
      vertex 0.556231 1.711902 0.600000
    endloop
  endfacet
  facet normal -0.406737 -0.913545 -0.000000
    outer loop
      vertex 0.556231 1.711902 0.000000
      vertex 0.900000 1.558846 0.000000
      vertex 0.556231 1.711902 0.600000
    endloop
  endfacet
  facet normal -0.587785 -0.809017 -0.000000
    outer loop
      vertex 1.204435 1.337661 0.000000
      vertex 1.204435 1.337661 0.600000
      vertex 0.900000 1.558846 0.600000
    endloop
  endfacet
  facet normal -0.587785 -0.809017 -0.000000
    outer loop
      vertex 0.900000 1.558846 0.000000
      vertex 1.204435 1.337661 0.000000
      vertex 0.900000 1.558846 0.600000
    endloop
  endfacet
  facet normal -0.743145 -0.669131 0.000000
    outer loop
      vertex 1.456231 1.058013 0.600000
      vertex 1.204435 1.337661 0.600000
      vertex 1.456231 1.058013 0.000000
    endloop
  endfacet
  facet normal -0.743145 -0.669131 0.000000
    outer loop
      vertex 1.456231 1.058013 0.000000
      vertex 1.204435 1.337661 0.600000
      vertex 1.204435 1.337661 0.000000
    endloop
  endfacet
  facet normal -0.866025 -0.500000 0.000000
    outer loop
      vertex 1.644382 0.732126 0.600000
      vertex 1.456231 1.058013 0.600000
      vertex 1.644382 0.732126 0.000000
    endloop
  endfacet
  facet normal -0.866025 -0.500000 0.000000
    outer loop
      vertex 1.644382 0.732126 0.000000
      vertex 1.456231 1.058013 0.600000
      vertex 1.456231 1.058013 0.000000
    endloop
  endfacet
  facet normal -0.951057 -0.309017 0.000000
    outer loop
      vertex 1.760666 0.374241 0.600000
      vertex 1.644382 0.732126 0.600000
      vertex 1.760666 0.374241 0.000000
    endloop
  endfacet
  facet normal -0.951057 -0.309017 0.000000
    outer loop
      vertex 1.760666 0.374241 0.000000
      vertex 1.644382 0.732126 0.600000
      vertex 1.644382 0.732126 0.000000
    endloop
  endfacet
  facet normal -0.994522 -0.104528 0.000000
    outer loop
      vertex 1.800000 0.000000 0.600000
      vertex 1.760666 0.374241 0.600000
      vertex 1.800000 0.000000 0.000000
    endloop
  endfacet
  facet normal -0.994522 -0.104528 0.000000
    outer loop
      vertex 1.800000 0.000000 0.000000
      vertex 1.760666 0.374241 0.600000
      vertex 1.760666 0.374241 0.000000
    endloop
  endfacet
  facet normal -0.994522 0.104528 0.000000
    outer loop
      vertex 1.800000 0.000000 0.600000
      vertex 1.800000 0.000000 0.000000
      vertex 1.760666 -0.374241 0.600000
    endloop
  endfacet
  facet normal -0.994522 0.104528 0.000000
    outer loop
      vertex 1.760666 -0.374241 0.600000
      vertex 1.800000 0.000000 0.000000
      vertex 1.760666 -0.374241 0.000000
    endloop
  endfacet
  facet normal -0.951057 0.309017 0.000000
    outer loop
      vertex 1.760666 -0.374241 0.600000
      vertex 1.760666 -0.374241 0.000000
      vertex 1.644382 -0.732126 0.600000
    endloop
  endfacet
  facet normal -0.951057 0.309017 0.000000
    outer loop
      vertex 1.644382 -0.732126 0.600000
      vertex 1.760666 -0.374241 0.000000
      vertex 1.644382 -0.732126 0.000000
    endloop
  endfacet
  facet normal -0.866025 0.500000 0.000000
    outer loop
      vertex 1.644382 -0.732126 0.600000
      vertex 1.644382 -0.732126 0.000000
      vertex 1.456231 -1.058013 0.600000
    endloop
  endfacet
  facet normal -0.866025 0.500000 0.000000
    outer loop
      vertex 1.456231 -1.058013 0.600000
      vertex 1.644382 -0.732126 0.000000
      vertex 1.456231 -1.058013 0.000000
    endloop
  endfacet
  facet normal -0.743145 0.669131 0.000000
    outer loop
      vertex 1.456231 -1.058013 0.600000
      vertex 1.456231 -1.058013 0.000000
      vertex 1.204435 -1.337661 0.600000
    endloop
  endfacet
  facet normal -0.743145 0.669131 0.000000
    outer loop
      vertex 1.204435 -1.337661 0.600000
      vertex 1.456231 -1.058013 0.000000
      vertex 1.204435 -1.337661 0.000000
    endloop
  endfacet
  facet normal -0.587785 0.809017 0.000000
    outer loop
      vertex 1.204435 -1.337661 0.600000
      vertex 1.204435 -1.337661 0.000000
      vertex 0.900000 -1.558846 0.600000
    endloop
  endfacet
  facet normal -0.587785 0.809017 0.000000
    outer loop
      vertex 0.900000 -1.558846 0.600000
      vertex 1.204435 -1.337661 0.000000
      vertex 0.900000 -1.558846 0.000000
    endloop
  endfacet
  facet normal -0.406737 0.913545 0.000000
    outer loop
      vertex 0.900000 -1.558846 0.600000
      vertex 0.900000 -1.558846 0.000000
      vertex 0.556231 -1.711902 0.600000
    endloop
  endfacet
  facet normal -0.406737 0.913545 0.000000
    outer loop
      vertex 0.556231 -1.711902 0.600000
      vertex 0.900000 -1.558846 0.000000
      vertex 0.556231 -1.711902 0.000000
    endloop
  endfacet
  facet normal -0.207912 0.978148 0.000000
    outer loop
      vertex 0.556231 -1.711902 0.600000
      vertex 0.556231 -1.711902 0.000000
      vertex 0.188151 -1.790139 0.600000
    endloop
  endfacet
  facet normal -0.207912 0.978148 0.000000
    outer loop
      vertex 0.188151 -1.790139 0.600000
      vertex 0.556231 -1.711902 0.000000
      vertex 0.188151 -1.790139 0.000000
    endloop
  endfacet
  facet normal 0.000000 1.000000 0.000000
    outer loop
      vertex 0.188151 -1.790139 0.600000
      vertex 0.188151 -1.790139 0.000000
      vertex -0.188151 -1.790139 0.600000
    endloop
  endfacet
  facet normal 0.000000 1.000000 -0.000000
    outer loop
      vertex -0.188151 -1.790139 0.600000
      vertex 0.188151 -1.790139 0.000000
      vertex -0.188151 -1.790139 0.000000
    endloop
  endfacet
  facet normal 0.207912 0.978148 -0.000000
    outer loop
      vertex -0.188151 -1.790139 0.600000
      vertex -0.188151 -1.790139 0.000000
      vertex -0.556231 -1.711902 0.600000
    endloop
  endfacet
  facet normal 0.207912 0.978148 -0.000000
    outer loop
      vertex -0.556231 -1.711902 0.600000
      vertex -0.188151 -1.790139 0.000000
      vertex -0.556231 -1.711902 0.000000
    endloop
  endfacet
  facet normal 0.406737 0.913545 -0.000000
    outer loop
      vertex -0.556231 -1.711902 0.600000
      vertex -0.556231 -1.711902 0.000000
      vertex -0.900000 -1.558846 0.600000
    endloop
  endfacet
  facet normal 0.406737 0.913545 -0.000000
    outer loop
      vertex -0.900000 -1.558846 0.600000
      vertex -0.556231 -1.711902 0.000000
      vertex -0.900000 -1.558846 0.000000
    endloop
  endfacet
  facet normal 0.587785 0.809017 -0.000000
    outer loop
      vertex -0.900000 -1.558846 0.600000
      vertex -0.900000 -1.558846 0.000000
      vertex -1.204435 -1.337661 0.600000
    endloop
  endfacet
  facet normal 0.587785 0.809017 -0.000000
    outer loop
      vertex -1.204435 -1.337661 0.600000
      vertex -0.900000 -1.558846 0.000000
      vertex -1.204435 -1.337661 0.000000
    endloop
  endfacet
  facet normal 0.743145 0.669131 0.000000
    outer loop
      vertex -1.456231 -1.058013 0.600000
      vertex -1.204435 -1.337661 0.600000
      vertex -1.204435 -1.337661 0.000000
    endloop
  endfacet
  facet normal 0.743145 0.669131 0.000000
    outer loop
      vertex -1.456231 -1.058013 0.000000
      vertex -1.456231 -1.058013 0.600000
      vertex -1.204435 -1.337661 0.000000
    endloop
  endfacet
  facet normal 0.866025 0.500000 0.000000
    outer loop
      vertex -1.644382 -0.732126 0.600000
      vertex -1.456231 -1.058013 0.600000
      vertex -1.456231 -1.058013 0.000000
    endloop
  endfacet
  facet normal 0.866025 0.500000 0.000000
    outer loop
      vertex -1.644382 -0.732126 0.000000
      vertex -1.644382 -0.732126 0.600000
      vertex -1.456231 -1.058013 0.000000
    endloop
  endfacet
  facet normal 0.951057 0.309017 0.000000
    outer loop
      vertex -1.760666 -0.374241 0.600000
      vertex -1.644382 -0.732126 0.600000
      vertex -1.644382 -0.732126 0.000000
    endloop
  endfacet
  facet normal 0.951057 0.309017 0.000000
    outer loop
      vertex -1.760666 -0.374241 0.000000
      vertex -1.760666 -0.374241 0.600000
      vertex -1.644382 -0.732126 0.000000
    endloop
  endfacet
  facet normal -0.499989 -0.866032 -0.000000
    outer loop
      vertex 2.750000 1.988335 0.600000
      vertex 2.750000 1.988335 2.850000
      vertex 0.000000 3.576000 2.850000
    endloop
  endfacet
  facet normal -0.499989 -0.866032 -0.000000
    outer loop
      vertex 0.000000 3.576000 0.600000
      vertex 2.750000 1.988335 0.600000
      vertex 0.000000 3.576000 2.850000
    endloop
  endfacet
  facet normal 0.499989 -0.866032 0.000000
    outer loop
      vertex 0.000000 3.576000 0.600000
      vertex 0.000000 3.576000 2.850000
      vertex -2.750000 1.988335 2.850000
    endloop
  endfacet
  facet normal 0.499989 -0.866032 0.000000
    outer loop
      vertex -2.750000 1.988335 0.600000
      vertex 0.000000 3.576000 0.600000
      vertex -2.750000 1.988335 2.850000
    endloop
  endfacet
  facet normal 0.000000 0.000000 1.000000
    outer loop
      vertex 1.800000 0.000000 0.600000
      vertex 2.750000 -1.988335 0.600000
      vertex 2.750000 1.988335 0.600000
    endloop
  endfacet
  facet normal 0.000000 0.000000 1.000000
    outer loop
      vertex -1.456231 1.058013 0.600000
      vertex -1.204435 1.337661 0.600000
      vertex 0.000000 3.576000 0.600000
    endloop
  endfacet
  facet normal 0.000000 0.000000 1.000000
    outer loop
      vertex -2.750000 -1.988335 0.600000
      vertex -1.800000 0.000000 0.600000
      vertex -2.750000 1.988335 0.600000
    endloop
  endfacet
  facet normal 0.000000 0.000000 1.000000
    outer loop
      vertex -0.188151 1.790139 0.600000
      vertex 0.188151 1.790139 0.600000
      vertex 0.000000 3.576000 0.600000
    endloop
  endfacet
  facet normal 0.000000 0.000000 1.000000
    outer loop
      vertex 1.760666 0.374241 0.600000
      vertex 1.800000 0.000000 0.600000
      vertex 2.750000 1.988335 0.600000
    endloop
  endfacet
  facet normal 0.000000 0.000000 1.000000
    outer loop
      vertex -2.750000 1.988335 0.600000
      vertex -1.760666 0.374241 0.600000
      vertex -1.644382 0.732126 0.600000
    endloop
  endfacet
  facet normal 0.000000 0.000000 1.000000
    outer loop
      vertex -2.750000 1.988335 0.600000
      vertex -1.456231 1.058013 0.600000
      vertex 0.000000 3.576000 0.600000
    endloop
  endfacet
  facet normal 0.000000 0.000000 1.000000
    outer loop
      vertex -2.750000 1.988335 0.600000
      vertex -1.644382 0.732126 0.600000
      vertex -1.456231 1.058013 0.600000
    endloop
  endfacet
  facet normal -0.000000 -0.000000 1.000000
    outer loop
      vertex -0.188151 -1.790139 0.600000
      vertex -0.556231 -1.711902 0.600000
      vertex 0.000000 -3.576000 0.600000
    endloop
  endfacet
  facet normal 0.000000 0.000000 1.000000
    outer loop
      vertex -1.204435 1.337661 0.600000
      vertex -0.900000 1.558846 0.600000
      vertex 0.000000 3.576000 0.600000
    endloop
  endfacet
  facet normal -0.000000 -0.000000 1.000000
    outer loop
      vertex -0.556231 -1.711902 0.600000
      vertex -0.900000 -1.558846 0.600000
      vertex 0.000000 -3.576000 0.600000
    endloop
  endfacet
  facet normal 0.000000 0.000000 1.000000
    outer loop
      vertex -0.900000 1.558846 0.600000
      vertex -0.556231 1.711902 0.600000
      vertex 0.000000 3.576000 0.600000
    endloop
  endfacet
  facet normal 0.000000 0.000000 1.000000
    outer loop
      vertex -0.556231 1.711902 0.600000
      vertex -0.188151 1.790139 0.600000
      vertex 0.000000 3.576000 0.600000
    endloop
  endfacet
  facet normal 0.000000 0.000000 1.000000
    outer loop
      vertex 0.000000 3.576000 0.600000
      vertex 0.188151 1.790139 0.600000
      vertex 2.750000 1.988335 0.600000
    endloop
  endfacet
  facet normal 0.000000 0.000000 1.000000
    outer loop
      vertex 0.188151 1.790139 0.600000
      vertex 0.556231 1.711902 0.600000
      vertex 2.750000 1.988335 0.600000
    endloop
  endfacet
  facet normal 0.000000 0.000000 1.000000
    outer loop
      vertex 0.556231 1.711902 0.600000
      vertex 0.900000 1.558846 0.600000
      vertex 2.750000 1.988335 0.600000
    endloop
  endfacet
  facet normal 0.000000 0.000000 1.000000
    outer loop
      vertex 0.900000 1.558846 0.600000
      vertex 1.204435 1.337661 0.600000
      vertex 2.750000 1.988335 0.600000
    endloop
  endfacet
  facet normal 0.000000 0.000000 1.000000
    outer loop
      vertex 1.204435 1.337661 0.600000
      vertex 1.456231 1.058013 0.600000
      vertex 2.750000 1.988335 0.600000
    endloop
  endfacet
  facet normal 0.000000 0.000000 1.000000
    outer loop
      vertex 1.456231 1.058013 0.600000
      vertex 1.644382 0.732126 0.600000
      vertex 2.750000 1.988335 0.600000
    endloop
  endfacet
  facet normal 0.000000 0.000000 1.000000
    outer loop
      vertex 1.644382 0.732126 0.600000
      vertex 1.760666 0.374241 0.600000
      vertex 2.750000 1.988335 0.600000
    endloop
  endfacet
  facet normal 0.000000 0.000000 1.000000
    outer loop
      vertex 0.556231 -1.711902 0.600000
      vertex 0.188151 -1.790139 0.600000
      vertex 0.000000 -3.576000 0.600000
    endloop
  endfacet
  facet normal 0.000000 0.000000 1.000000
    outer loop
      vertex 1.760666 -0.374241 0.600000
      vertex 2.750000 -1.988335 0.600000
      vertex 1.800000 0.000000 0.600000
    endloop
  endfacet
  facet normal 0.000000 0.000000 1.000000
    outer loop
      vertex 1.644382 -0.732126 0.600000
      vertex 2.750000 -1.988335 0.600000
      vertex 1.760666 -0.374241 0.600000
    endloop
  endfacet
  facet normal 0.000000 0.000000 1.000000
    outer loop
      vertex 1.204435 -1.337661 0.600000
      vertex 0.900000 -1.558846 0.600000
      vertex 0.000000 -3.576000 0.600000
    endloop
  endfacet
  facet normal 0.000000 0.000000 1.000000
    outer loop
      vertex 1.456231 -1.058013 0.600000
      vertex 2.750000 -1.988335 0.600000
      vertex 1.644382 -0.732126 0.600000
    endloop
  endfacet
  facet normal 0.000000 0.000000 1.000000
    outer loop
      vertex 0.000000 -3.576000 0.600000
      vertex 2.750000 -1.988335 0.600000
      vertex 1.456231 -1.058013 0.600000
    endloop
  endfacet
  facet normal 0.000000 0.000000 1.000000
    outer loop
      vertex 1.456231 -1.058013 0.600000
      vertex 1.204435 -1.337661 0.600000
      vertex 0.000000 -3.576000 0.600000
    endloop
  endfacet
  facet normal -0.000000 -0.000000 1.000000
    outer loop
      vertex -0.900000 -1.558846 0.600000
      vertex -1.204435 -1.337661 0.600000
      vertex 0.000000 -3.576000 0.600000
    endloop
  endfacet
  facet normal 0.000000 0.000000 1.000000
    outer loop
      vertex -2.750000 -1.988335 0.600000
      vertex 0.000000 -3.576000 0.600000
      vertex -1.204435 -1.337661 0.600000
    endloop
  endfacet
  facet normal 0.000000 0.000000 1.000000
    outer loop
      vertex -2.750000 -1.988335 0.600000
      vertex -1.204435 -1.337661 0.600000
      vertex -1.456231 -1.058013 0.600000
    endloop
  endfacet
  facet normal 0.000000 0.000000 1.000000
    outer loop
      vertex -2.750000 -1.988335 0.600000
      vertex -1.456231 -1.058013 0.600000
      vertex -1.644382 -0.732126 0.600000
    endloop
  endfacet
  facet normal 0.000000 0.000000 1.000000
    outer loop
      vertex -2.750000 -1.988335 0.600000
      vertex -1.760666 -0.374241 0.600000
      vertex -1.800000 0.000000 0.600000
    endloop
  endfacet
  facet normal 0.000000 0.000000 1.000000
    outer loop
      vertex -2.750000 -1.988335 0.600000
      vertex -1.644382 -0.732126 0.600000
      vertex -1.760666 -0.374241 0.600000
    endloop
  endfacet
  facet normal 0.000000 0.000000 1.000000
    outer loop
      vertex -1.800000 0.000000 0.600000
      vertex -1.760666 0.374241 0.600000
      vertex -2.750000 1.988335 0.600000
    endloop
  endfacet
  facet normal 0.000000 0.000000 1.000000
    outer loop
      vertex 0.900000 -1.558846 0.600000
      vertex 0.556231 -1.711902 0.600000
      vertex 0.000000 -3.576000 0.600000
    endloop
  endfacet
  facet normal 0.000000 0.000000 1.000000
    outer loop
      vertex 0.188151 -1.790139 0.600000
      vertex -0.188151 -1.790139 0.600000
      vertex 0.000000 -3.576000 0.600000
    endloop
  endfacet
  facet normal 0.499989 0.866032 -0.000000
    outer loop
      vertex 0.000000 -3.576000 2.850000
      vertex 0.000000 -3.576000 0.600000
      vertex -2.750000 -1.988335 2.850000
    endloop
  endfacet
  facet normal 0.499989 0.866032 -0.000000
    outer loop
      vertex -2.750000 -1.988335 2.850000
      vertex 0.000000 -3.576000 0.600000
      vertex -2.750000 -1.988335 0.600000
    endloop
  endfacet
  facet normal 0.000000 -0.000000 1.000000
    outer loop
      vertex 0.000000 -3.576000 2.850000
      vertex -2.750000 -4.250000 2.850000
      vertex 2.750000 -4.250000 2.850000
    endloop
  endfacet
  facet normal 0.000000 -0.000000 1.000000
    outer loop
      vertex -2.750000 -1.988335 2.850000
      vertex -2.750000 -4.250000 2.850000
      vertex 0.000000 -3.576000 2.850000
    endloop
  endfacet
  facet normal 0.000000 0.000000 1.000000
    outer loop
      vertex 2.750000 -1.988335 2.850000
      vertex 0.000000 -3.576000 2.850000
      vertex 2.750000 -4.250000 2.850000
    endloop
  endfacet
  facet normal -0.499989 0.866032 0.000000
    outer loop
      vertex 2.750000 -1.988335 2.850000
      vertex 2.750000 -1.988335 0.600000
      vertex 0.000000 -3.576000 2.850000
    endloop
  endfacet
  facet normal -0.499989 0.866032 0.000000
    outer loop
      vertex 0.000000 -3.576000 2.850000
      vertex 2.750000 -1.988335 0.600000
      vertex 0.000000 -3.576000 0.600000
    endloop
  endfacet
endsolid OpenSCAD_Model
